<?xml version="1.0" standalone="no"?>
<!DOCTYPE svg PUBLIC "-//W3C//DTD SVG 20010904//EN"
 "http://www.w3.org/TR/2001/REC-SVG-20010904/DTD/svg10.dtd">
<svg version="1.0" xmlns="http://www.w3.org/2000/svg"
 width="700.000000pt" height="700.000000pt" viewBox="0 0 700.000000 700.000000"
 preserveAspectRatio="xMidYMid meet">
<metadata>
Created by potrace 1.11, written by Peter Selinger 2001-2013
</metadata>
<g transform="translate(0.000000,700.000000) scale(0.100000,-0.100000)"
fill="#000000" stroke="none">
<path d="M3230 6989 c-703 -57 -1372 -321 -1915 -756 -144 -115 -373 -339
-494 -483 -290 -346 -498 -718 -641 -1149 -261 -786 -234 -1646 75 -2411 455
-1124 1475 -1942 2665 -2139 227 -38 322 -45 580 -45 258 0 353 7 580 45 656
108 1284 414 1778 865 45 41 82 79 82 83 0 4 -62 29 -137 56 -76 26 -143 53
-150 59 -6 6 -188 372 -404 814 -216 441 -396 799 -399 795 -4 -5 -100 -267
-215 -583 -114 -316 -209 -577 -211 -578 -2 -3 -558 195 -571 203 -3 2 1363
3755 1369 3761 7 7 568 -197 568 -207 0 -4 -167 -465 -370 -1024 -204 -560
-369 -1019 -368 -1020 2 -2 352 134 779 301 l777 304 188 -70 c103 -38 190
-68 192 -65 6 6 -17 209 -39 340 -99 589 -346 1137 -728 1615 -169 212 -458
484 -686 647 -146 104 -394 253 -421 253 -4 0 -5 -124 -2 -275 2 -151 1 -275
-3 -275 -3 0 -42 20 -86 45 -108 61 -194 85 -329 92 -192 10 -365 -30 -488
-112 -132 -87 -247 -257 -296 -435 -47 -173 -50 -243 -50 -1186 l0 -884 -320
0 -320 0 0 1570 0 1570 320 0 320 0 0 -151 0 -152 75 72 c42 40 101 88 131
107 142 91 321 155 487 175 179 21 179 19 11 72 -429 136 -899 191 -1334 156z
m-564 -3319 c376 -1031 680 -1878 676 -1881 -10 -10 -556 -207 -561 -203 -2 1
-22 56 -46 120 l-42 118 -22 -49 c-59 -134 -204 -303 -336 -392 -128 -86 -320
-167 -467 -197 -246 -49 -466 -18 -703 99 -196 97 -381 260 -527 466 -144 200
-295 558 -353 832 -109 513 1 982 298 1275 131 131 262 208 454 271 154 51
243 65 383 64 160 -1 239 -19 436 -100 7 -2 -91 278 -217 624 -125 345 -227
629 -225 630 9 9 544 202 555 200 10 -1 244 -631 697 -1877z"/>
<path d="M1435 3693 c-76 -11 -157 -38 -235 -75 -331 -159 -429 -566 -259
-1082 47 -145 137 -334 209 -442 65 -96 195 -227 273 -273 182 -107 373 -118
578 -32 138 58 256 168 315 297 47 101 66 198 66 344 1 161 -21 279 -86 475
-139 416 -364 689 -634 769 -57 17 -179 27 -227 19z"/>
<path d="M6455 3244 c-445 -175 -730 -287 -963 -378 -30 -12 -54 -25 -54 -31
0 -14 755 -1555 762 -1555 3 0 25 26 50 57 248 316 446 686 570 1063 102 309
154 585 176 943 5 87 4 107 -7 106 -8 0 -248 -92 -534 -205z"/>
</g>
</svg>
